<?xml version="1.0" encoding="UTF-8"?>
<!DOCTYPE svg PUBLIC "-//W3C//DTD SVG 1.1//EN" "http://www.w3.org/Graphics/SVG/1.1/DTD/svg11.dtd">
<svg version="1.1" xmlns="http://www.w3.org/2000/svg" xmlns:xlink="http://www.w3.org/1999/xlink" x="0" y="0" width="300" height="300" viewBox="0, 0, 300, 300">
  <g id="Layer_1">
    <path d="M0.5,150.5 L300.5,150.5" fill-opacity="0" stroke="#000000" stroke-width="7" stroke-linecap="square" stroke-linejoin="round"/>
    <path d="M220.5,120.5 L220.5,180.5" fill-opacity="0" stroke="#000000" stroke-width="7" stroke-linecap="square" stroke-linejoin="round"/>
    <path d="M250.5,120.5 L250.5,180.5" fill-opacity="0" stroke="#000000" stroke-width="7" stroke-linecap="square" stroke-linejoin="round"/>
    <path d="M280.5,120.5 L280.5,180.5" fill-opacity="0" stroke="#000000" stroke-width="7" stroke-linecap="square" stroke-linejoin="round"/>
    <path d="M80.5,120.5 L80.5,180.5" fill-opacity="0" stroke="#000000" stroke-width="7" stroke-linecap="square" stroke-linejoin="round"/>
    <path d="M50.5,120.5 L50.5,180.5" fill-opacity="0" stroke="#000000" stroke-width="7" stroke-linecap="square" stroke-linejoin="round"/>
    <path d="M20.5,120.5 L20.5,180.5" fill-opacity="0" stroke="#000000" stroke-width="7" stroke-linecap="square" stroke-linejoin="round"/>
    <path d="M130.5,130.5 L170.5,170.5" fill-opacity="0" stroke="#000000" stroke-width="7" stroke-linecap="square" stroke-linejoin="round"/>
    <path d="M130.5,170.5 L170.5,130.5" fill-opacity="0" stroke="#000000" stroke-width="7" stroke-linecap="square" stroke-linejoin="round"/>
    <path d="M150.5,150.5 L150.5,300.5" fill-opacity="0" stroke="#000000" stroke-width="7" stroke-linecap="square" stroke-linejoin="round"/>
    <path d="M120.5,280.5 L180.5,280.5" fill-opacity="0" stroke="#000000" stroke-width="7" stroke-linecap="square" stroke-linejoin="round"/>
    <path d="M120.5,250.5 L180.5,250.5" fill-opacity="0" stroke="#000000" stroke-width="7" stroke-linecap="square" stroke-linejoin="round"/>
    <path d="M120.5,220.5 L180.5,220.5" fill-opacity="0" stroke="#000000" stroke-width="7" stroke-linecap="square" stroke-linejoin="round"/>
    <path d="M120.5,190.5 L180.5,190.5" fill-opacity="0" stroke="#000000" stroke-width="7" stroke-linecap="square" stroke-linejoin="round"/>
    <path d="M110.5,120.5 L110.5,180.5" fill-opacity="0" stroke="#000000" stroke-width="7" stroke-linecap="square" stroke-linejoin="round"/>
    <path d="M190.5,120.5 L190.5,180.5" fill-opacity="0" stroke="#000000" stroke-width="7" stroke-linecap="square" stroke-linejoin="round"/>
  </g>
</svg>
